<?xml version="1.0" ?><svg xmlns="http://www.w3.org/2000/svg" width="59.233578mm" height="34.326103mm" viewBox="0 0 59.233578 34.326103">
    <path d="m 3865.2486,5125.3958 c 4.907,-6.4031 19.4104,-14.0716 27.3801,-14.4846 18.7442,-0.9714 23.6509,15.721 23.6509,15.721 0,0 -9.2387,12.8692 -23.8961,13.3364 -15.1777,0.4837 -27.1349,-14.5728 -27.1349,-14.5728 z" fill="#fff" paint-order="markers stroke fill" transform="translate(379.4727,-93.582665) translate(-4240.4819,-5015.051)"/>
    <path d="m 3918.0444,5131.6995 c -3.4488,4.7076 -14.5665,10.577 -24.6342,11.1765 -8.1146,0.4834 -17.3477,-1.0386 -24.1224,-6.843 -2.7428,-2.3503 -4.1888,-3.048 -6.278,-4.7273 -3.3141,-2.6641 -3.4825,-7.7074 7.126,-15.3157 12.43,-8.9144 27.2358,-9.6742 38.7041,-2.5666 11.0403,6.842 13.9636,11.78 9.2045,18.2761 z m -19.8635,-15.6091 c 2.7917,2.2279 4.9341,7.1682 4.088,11.9789 -0.9977,5.6728 -4.2744,6.8099 -0.062,5.3925 2.8495,-0.9589 10.9343,-5.1424 10.6419,-7.0369 -3.6398,-4.9446 -8.2102,-7.5782 -14.6682,-10.3345 z m -15.1434,1.1647 c -1.0863,-0.7961 -13.3359,8.1515 -13.1138,9.5894 0.302,1.9619 10.9468,9.0743 12.889,8.7747 0.9221,-0.1411 0.3084,-0.8966 -0.6895,-2.6916 -2.3589,-4.7326 -3.4823,-10.4769 0.9143,-15.6725 z" transform="translate(379.4727,-93.582665) translate(-4240.4819,-5015.051)"/>
</svg>